<svg xmlns="http://www.w3.org/2000/svg" viewBox="0 0 1080 1080"><defs><style>.cls-1{fill:#96705b;}.cls-2{fill:#0c3;}.cls-3{fill:#036;}.cls-4{fill:#03475f;}.cls-5{fill:#25ac8f;}.cls-6{font-size:140.57px;fill:#f0f7f4;stroke:#ab8476;stroke-miterlimit:10;stroke-width:2px;font-family:Gotham-Black, Gotham Black;font-weight:800;}</style></defs><title>Recurso 1</title><g id="Capa_2" data-name="Capa 2"><g id="Fondo"><rect class="cls-1" width="1080" height="1080"/></g><g id="Mundo"><path class="cls-2" d="M420.12,432.71c-30.64-8.31-59.21,2.31-89.58,10.89,2.46-18.68,4.51-36,7.1-53.24,2.37-15.72-.34-30.19-7.78-44.25-5.72-10.8-13.43-13-24-8.24-4.63,2.1-9.14,4.49-13.84,6.43-22.3,9.16-36.73,1.38-42.23-22.09a56.83,56.83,0,0,1,3.56-36.61c10.09-23.18,32.31-28.34,52.06-12.42,12.17,9.82,13.9,9.51,21.09-4.52,10.89-21.25,16.36-44.18,19.17-67.63,1.25-10.41,5.81-15.35,15.63-17.39,12.66-2.62,25.12-6.22,37.76-9,8-1.75,12,.56,7.28,9.26-7.16-.43-13.54,2.62-20.22,4.4-3.93,1.05-9.43.63-9.21,6.21.16,4.09,5.18,4.66,8.48,6.11,3.8,1.68,7.86,2.86,11.44,4.91,15,8.6,19.88,21.67,10.74,36.09-8.83,13.94-.37,20.59,8.47,27.22,6.16,4.63,13.81,7,21.28,9.64,12,4.2,17.92,1.21,21.19-11.31,6.76-25.93,25.13-33.05,49.22-19.91,4.88,2.66,9.52,5.78,15.29,6.2-18.57,31.19-14.57,62.54-.69,94A18,18,0,0,0,508,354.37c-12.11,14.51-24.19,29.06-37,42.95C456.73,412.79,445.79,433.48,420.12,432.71Z"/><path class="cls-2" d="M594.54,535.76c-.12,2.27.17,4.66-.42,6.8-5.59,20.4-7.75,21-22.62,7.58-11.45-10.29-24-16.48-40.44-11.65-16.86,5-22.35,17.55-25.82,32.7-4.2,18.42-1.6,35.87,6.29,52.66,8.56,18.21,22,24.26,40.87,17.74,9.54-3.29,18.39-8.5,27.7-12.5,12.34-5.3,19.88-2,22.77,11,4.29,19.36,7.44,39,11.38,58.41,1.76,8.68-2.74,9.67-9.83,10.39-28.9,3-58.16,4.6-85,17.44a100.1,100.1,0,0,0-16.37,10.24c-6.62,4.95-7.07,11.21-2.92,18.33,17.2,29.47,11.74,42.43-21.75,51.92-2.62.75-5.36,1.07-8.05,1.58-.9-14.49,1.64-28.36,5.81-42.31,6.2-20.76,10.43-42.1,16.59-62.88,2.79-9.37.45-14.57-8.42-16.59-17.89-4.06-26.44-16.87-32.62-32.62-4.73-12-10.16-23.8-15.5-35.59-8.45-18.67-5.83-29.79,10.64-42.13,5.25-3.93,10.41-7.82,13.19-13.94,2.21-4.87,2.79-10.22-4.69-9-15.49,2.6-26.23-6.51-38.07-13.51S393,526.42,381.05,519.46c-18.6-10.79-39.94-14.46-59.33-23.15,1.21-10.95,2.45-21.9,3.6-32.85.6-5.75,3.58-9.24,9.19-10.67,8.46-2.14,16.88-4.41,25.33-6.62,3.08,6.66,6.14,13.08,13.6,16.36,17.09,7.53,34,15.48,51,23.26,1.77,24.3,11.37,33.7,38.15,37.36,9.63,5.34,18.19,6.55,27.36-2.35,4.7-4.57,12.5-4.17,19.73-2.59C537.89,524.38,566.24,530,594.54,535.76Z"/><path class="cls-2" d="M129.06,457.71c-10.62.16-19.09-.63-14.92-15.69Q162.73,266.53,330,195c1.62-.69,3.53-.72,7-1.39-2.29,26.82-9.25,51.24-20.52,75.67-4.08-2.79-7.23-5.17-10.59-7.2-23.22-14-49.62-6.23-60,18.7-7,16.7-11.1,34.21-2.36,51.88,12,24.2,30.1,30.54,54.91,19.35,22.92-10.34,26.53-8.13,29.61,17.13,3,24.43-2.27,47.87-7.92,71.29-1,4.15-2.74,8.24-7.32,9.33-12.91,3-25,9.84-38.83,8.7-10.28-5.15-11.55-19.39-23.27-23.07,6.07-8.81,11.12-18.12,12.43-28.91,2-16.23-8.6-31.42-27.41-38.83-7.23-2.85-15-4.41-22.48-6.56-1.22-22.65,7.07-45.23,1.42-70.5-10.35,11.79-19.39,21.36-27,32.4C159.45,364.18,139.69,408.94,129.06,457.71Z"/><path class="cls-2" d="M611.51,747.56c-11.71,6.48-21.42,15.49-31.41,24.27-18,15.83-36.44,31.23-54.89,46.58-21,17.47-34.73,17.2-49.79-.54,7.66-3.19,15.76-5.61,22.9-9.68,25.33-14.46,27.71-34.25,13.45-52.57-6.23-8-4.17-11.93,3.08-16,28.22-15.93,59-20.91,90.9-21.5,5.86-.11,8.24,2.61,7.4,8.72C612.21,733.68,612,740.64,611.51,747.56Z"/><path class="cls-2" d="M604,230.69c-32.56,8.68-63.72,5.89-93.18-11.23-2.41-1.41-5-2.46-5.35-5.72,5.23-13.58,7.59-27.31.42-42.79,36.4,2.8,69,12.07,100.87,24.92,5.12,2.07,5.72,5.75,4.81,10C609.78,214.36,609.64,223.38,604,230.69Z"/><path class="cls-2" d="M128.31,467.31c-12,65.57-1.39,128.59,21.34,190.24,3.36,9.12,6.69,18.29,14.72,24.63-5.16,10.65-4.3,22.21-4.22,37.79-13.45-18.78-19.21-36.94-26.91-54-26.31-58.26-31.5-119.72-26.36-182.58C108.49,463.78,110.1,462.74,128.31,467.31Z"/><path class="cls-2" d="M169.91,700C202,750.39,244,790.49,295.29,821c4.66,2.78,8.8,7,14.89,6.73.18.43.53.85.53,1.27-.07,7.8,10,17,4.38,21.41-7,5.46-15.94-4.35-23-8-39.08-20-71.37-49-100.74-81.33-3.78-4.17-7-8.06-3.37-14.61,3.73-6.71-2.21-11.15-6.13-15.49C173.85,722.15,167.72,712.7,169.91,700Z"/><path class="cls-2" d="M605.85,833.93c28.71-11,52.28-30.2,76.51-48.32,6.65,21.22,6.42,20.88-14.62,35-38.84,26-80.23,46-126.47,54.64-5,.93-13,7.48-15.39-.72-2.21-7.47.46-16,9.14-21.07,12.17-7.05,24.59-7,37-2.26,19.57,7.47,19.42,7.77,29.38-10.54C602.69,838.29,604.36,836.16,605.85,833.93Z"/><path class="cls-2" d="M417.05,182.91c-.82-8,3.06-11.72,10.88-12.64,20.68-2.44,41.44-2.21,62.13-1.09,9.95.54,15.55,23.8,8.95,35.46-2,3.58-4.41,7.08-8.92,8.05-17.09-7.6-34.24-15.05-51.21-22.9C431.85,186.55,425.42,181.77,417.05,182.91Z"/><path class="cls-2" d="M403,861.46c38,6.22,76,3.15,114,0-3.08,20.3-3,21.37-31.18,23.29-24.4,1.67-49,1.48-73.37-2.72C398,879.51,404.91,868.85,403,861.46Z"/><path class="cls-2" d="M245.79,425.51c-5.6-12.86-17-21.53-24.07-33.4-3.82-6.4-7.81-12.42-7.78-20.17C249,373.29,263.37,397.47,245.79,425.51Z"/><path class="cls-2" d="M391.59,858.93c3.05,3.94,2.72,8.59,2.74,13.16,0,4.74-1.76,6.74-6.8,5.11-17.35-5.61-35.88-7.23-53.95-15.64,6.57-6.47,13.2-11.19,21.3-13.88C366.45,853.6,379.05,856.15,391.59,858.93Z"/><path class="cls-2" d="M310.51,492c-13.14-3.09-24.46-8.64-29.86-22.16a19.13,19.13,0,0,1,3.59-1.91C317,458.6,317.05,458.61,310.51,492Z"/><path class="cls-2" d="M322.68,834.42c7.64.21,13.38,4.54,19.13,8.83C329,851.72,329,851.72,322.68,834.42Z"/><path class="cls-3" d="M245.79,425.51c-3,4.07-6,8.08-8.88,12.23-10,14.55-3.68,28,13.74,32,10.26,2.34,20-.13,30,.1,5.4,13.52,16.72,19.07,29.86,22.16-2.78,21.77-3.86,43.36,7.26,63.53,7.74,14,9.05,14.25,20.26,3.65,15.64-14.81,38.94-9.54,45.7,10.85,6,18.09,3.42,35.73-6.44,51.9-6.76,11.1-19.44,14.68-32.94,10.2-4.8-1.59-9.3-4.08-14.1-5.72-14.13-4.83-21.2-1.62-28,11.67C292,658,290,679.52,290.43,701.37a420.33,420.33,0,0,0,3.14,42.85c.83,6.57-.86,9.41-7,10.37-9.07,1.41-17.94,4.21-27.37,2-18.69-4.27-23.16-11.94-16.37-29.35,6.49-16.64,9.15-33.36-1.78-49-13.62-19.47-51.41-22.11-68.43-5.31-2.92,2.88-5.49,6.11-8.21,9.18-8-6.34-11.36-15.51-14.72-24.63-22.73-61.65-33.38-124.67-21.34-190.24,21.88,3.68,40.24-3.93,56.38-18,5.48-4.78,4.34-10.53.86-16.26-4-6.66-8.75-13.14-11.47-20.34-4.18-11.07-5.94-23.48,2.89-32.71,9.86-10.32,23.13-12.26,37-8.05,0,7.75,4,13.77,7.78,20.17C228.79,404,240.19,412.65,245.79,425.51Z"/><path class="cls-2" d="M792.63,418.65c-10.4-30.61-22.72-60.55-41-87.19a394,394,0,0,0-45.85-54.8c-19.12-19.2-40.82-34.16-62.85-49.23-9.2-6.3-17.29-8-26.18-.51,1.61-7.66,3.23-15.31,5.18-24.56,94.06,46.49,157.83,118.2,191,217.7C804.82,423.3,798.92,418.91,792.63,418.65Z"/><path class="cls-2" d="M530.71,260.18c8.9,4.74,17.61,9.87,26.73,14.14,28.9,13.51,24.87,22.29,23.54,47.18-.19,3.58-1.76,7.08-2.7,10.62L567,340.9c-9.92,2-20.71-.46-29.84,5.69C516.28,327.78,513.14,285.66,530.71,260.18Z"/><path class="cls-3" d="M530.71,260.18c9.51-13,23.16-14.64,40.09-5.18,7.28,4.08,12.54,14.42,22.51,10.51,11.19-4.39,14.44-16,18.83-26,1.78-4.07,3.07-8.36,4.59-12.55,8.89-7.47,17-5.79,26.18.51,22,15.07,43.73,30,62.85,49.23a394,394,0,0,1,45.85,54.8c18.3,26.64,30.62,56.58,41,87.19-5.35,1.35-10.93,2.15-16,4.16-16.93,6.67-21,17.7-12.93,34,1.43,2.89,3.07,5.67,4.61,8.5,15,27.49,9,42-21,50.21-16,4.4-32.08,4.28-47.79-1.62-19.61-7.37-25.18-25.78-12.4-42.37,4.74-6.16,11.05-11.11,16.6-16.65,10.38-10.38,8.91-17.15-5.24-21.67-24.65-7.88-49.57-15.11-75.57-16.39-6.77-.33-8.49-2.84-9.62-8.4-3.1-15.29-5.44-30.86-10.16-45.65-4.12-12.9-6.4-28.72-24.79-30.67.94-3.54,2.51-7,2.7-10.62,1.33-24.89,5.36-33.67-23.54-47.18C548.32,270.05,539.61,264.92,530.71,260.18Z"/><path class="cls-2" d="M787.82,590.19c13.37,4,19.22,15.07,24.21,26.57,3.3,7.6,8.07,13.13,15.73,16.46,14.36,6.26,28.63,12.75,42.89,19.25,23.08,10.51,27.47,21,17,43.82-10.74,23.43-22.35,46.46-33.58,69.66-13.7-1.82-27.37-4.08-41.13-5.28-6.29-.55-5.81-4.23-6.41-8.38-2.51-17.37-5.19-34.72-7.89-52.07-1.16-7.42-4.61-14-8.22-20.45-5.89-10.51-14.56-13.87-25.75-8.8-8.85,4-17.31,8.93-26.3,12.56-17.84,7.21-29.75,2.13-36.72-15.39-6.17-15.49-7.65-31.42-3-47.65,7-24.27,29.69-30.89,48.41-14,4.79,4.34,8.77,9.57,13.64,13.8,7.43,6.47,13.73,4.74,17.47-4.16C781.76,607.65,784.64,598.85,787.82,590.19Z"/><path class="cls-2" d="M877.91,822.47c8.89-.81,13.65-8.19,18.52-13.67C945.67,753.38,979,690.36,988.1,615.63a359.94,359.94,0,0,0-8.47-133.32c12.65-2.38,18.74,1.58,21.58,15.52,11.75,57.68,10.44,114.49-5.49,171.25-9,32.14-20.38,63.06-38.24,91.39a37.11,37.11,0,0,1-9.83,11.07c-8.16,5.93-15.94,11.5-17.46,24.45-1.25,10.68-13.08,18.39-21.09,26.67-6.44,6.65-13,13.15-19.66,19.61-2.27,2.21-4.63,5.18-8.26,4.07-4.22-1.3-5-5.25-4.92-9C876.43,832.36,875,827.15,877.91,822.47Z"/><path class="cls-3" d="M791.17,590.19c7.94-34,10.42-68.5,11-103.25.07-4.78-.19-9.29,7.14-8.81,26.77,1.73,53.36,4,78.12,16.88-7.44,9.17-15.22,17.6-21.66,27-13.94,20.24-7.48,41.8,15.11,51,26.18,10.64,51.73,8.18,76.12-5.63,13.81-7.83,19-22.33,13.64-38.29-2.49-7.37-6.36-14.32-10.05-21.22-8.34-15.64-5-22.54,12.72-25.29,3.16-.49,6.46-.15,9.69-.19a359.94,359.94,0,0,1,8.47,133.32C982.36,690.36,949,753.38,899.77,808.8c-4.87,5.48-9.62,12.86-18.51,13.67,2-9.62,6.73-18.14,11-26.81,5.67-11.57,1.68-18.48-9.8-22.15-8.29-2.65-16.65-5-25-7.56,11.22-23.2,22.83-46.23,33.57-69.66,10.45-22.81,6.05-33.31-17-43.82-14.26-6.5-28.52-13-42.89-19.25-7.65-3.33-12.43-8.86-15.73-16.46C810.38,605.26,804.54,594.21,791.17,590.19Z"/><path class="cls-3" d="M321.72,496.31c19.39,8.69,40.73,12.36,59.33,23.15,12,7,24.29,13.38,36.21,20.44s22.58,16.11,38.07,13.51c7.48-1.25,6.9,4.1,4.69,9-2.78,6.12-7.94,10-13.19,13.94-16.47,12.34-19.09,23.46-10.64,42.13C441.53,630.24,447,642,451.69,654c6.18,15.75,14.73,28.56,32.62,32.62,8.87,2,11.21,7.22,8.42,16.59-6.16,20.78-10.39,42.12-16.59,62.88-4.17,14-6.71,27.82-5.81,42.31-14.26.67-29.93,3.92-38.83-11.25-9-15.37,1.5-27,10-38.74,9.11-12.54,7.78-18.74-4.88-27.48-14-9.65-29.28-10.28-45.15-6.72-26.56,6-52.44,14.36-78.28,22.8-7.3,2.38-10.16,1.44-11.24-6.84-3.69-28.34,1.17-56.44,2.25-84.6.29-7.57,7.82-15.13,12.8-22.14,3.34-4.71,7.47-1,11.06.82,37.14,18.69,65.22,2.05,66.77-39.63.17-4.63.13-9.28-.09-13.9-1.62-33.47-28.87-49-57.22-31.64-9.69,5.94-12,2.48-15.62-5.38C314.56,527.81,318.18,512.12,321.72,496.31Z"/><path class="cls-3" d="M403,861.46c-12.34-29.87-29.54-35-61.23-18.21-5.75-4.29-11.49-8.62-19.13-8.83-9.51-22.24-13.1-45.92-17-69.53-.82-5,.76-7.39,5.94-8.79,29.56-8,58.95-16.52,88.53-24.42,6.18-1.65,12.81-1,19.2.89,19.24,5.86,21.42,11.16,10,27.1-9.28,13-13.1,26.69-6,41.59s21.25,16.34,35.42,17c5.52.24,11.08-.21,16.62-.34,15.06,17.74,28.79,18,49.79.54,18.45-15.35,36.86-30.75,54.89-46.58,10-8.78,19.7-17.79,31.41-24.27-.25,29.35-3.68,58-16.24,85.13C591,842,586.14,846.39,575.19,843c-6.35-2-13.36-2.79-20.17-3.74-19.11-2.66-31.7,3.91-38,22.23C479,864.61,441,867.68,403,861.46Z"/><path class="cls-3" d="M420.12,432.71c25.67.77,36.61-19.92,50.87-35.39,12.8-13.89,24.88-28.44,37-42.95a18,18,0,0,1,14.35-6.92c24.22,16.64,34.15,16.58,54.18-2.62,5.75-5.52,7.31-2.35,9.86,1.67,12.6,19.82,14.71,42.43,17.06,65,.57,5.54-2.85,5.75-6.95,5.51-27-1.57-53.06,5-79.24,10.15a48.77,48.77,0,0,0-12.91,4.6c-21.4,11.17-19,19.2-5.34,31.61,17.41,15.78,13.66,31.92-7.87,42.25-13,6.23-26.33,8.81-40.26,4.12-13.76-4.63-18.7-13.43-16.07-27.82.9-5,2.07-9.95,3.43-14.83,5.82-20.82,5.86-20.81-13.37-32.1.18-1.84-.62-2.27-2.22-1.54A12.81,12.81,0,0,1,420.12,432.71Z"/><path class="cls-3" d="M594.54,535.76c-28.3-5.8-56.65-11.38-84.87-17.55-7.23-1.58-15-2-19.73,2.59-9.17,8.9-17.73,7.69-27.36,2.35,12.37-3,25.15-4.62,36.36-11.52,23.85-14.68,26.72-37.48,5.79-55.73-8.44-7.35-9.09-9.72,1.64-15.19,21.09-10.74,44.06-9.2,66.23-12.88,2.26-.37,4.63,0,6.93-.23,26.63-2.27,27-2.26,25.66,24.87C603.81,480.48,604.59,508.83,594.54,535.76Z"/><path class="cls-3" d="M169.91,700c-3.43-20.62,22.86-31.7,42.7-27.88,21,4,31.16,19.66,25.7,41-1.6,6.21-4.37,12.13-6,18.34-4.51,17.22,4.14,30.35,21.6,33.28,10.16,1.71,20.36.73,30.43-.36,8.09-.88,11.4,2,13.06,9.81,3.81,18,8.46,35.75,12.78,53.61-6.09.26-10.23-4-14.89-6.73C244,790.49,202,750.39,169.91,700Z"/><path class="cls-3" d="M605.85,833.93c12.52-34.15,13.85-70.24,17.78-105.81.84-7.55,2.84-9,9.62-8.62,19.32,1,38.74.92,56.81,9.38,6.08,2.84,11.34,4.85,5.59,13.72a83.09,83.09,0,0,0-13.29,43C658.13,803.73,634.56,822.9,605.85,833.93Z"/><path class="cls-3" d="M523,253.48c-5.77-.42-10.41-3.54-15.29-6.2-24.09-13.14-42.46-6-49.22,19.91-3.27,12.52-9.19,15.51-21.19,11.31-7.47-2.62-15.12-5-21.28-9.64-8.84-6.63-17.3-13.28-8.47-27.22,9.14-14.42,4.25-27.49-10.74-36.09-3.58-2.05-7.64-3.23-11.44-4.91-3.3-1.45-8.32-2-8.48-6.11-.22-5.58,5.28-5.16,9.21-6.21,6.68-1.78,13.06-4.83,20.22-4.4,4.24,38.75,49.87,58.25,87.48,37.32,4-2.24,7.78-5,11.67-7.5.35,3.26,2.94,4.31,5.35,5.72,29.46,17.12,60.62,19.91,93.18,11.23.45,9.37-6.82,15.57-9.73,23.58-2,5.49-5.11,3-8.32.69a103.49,103.49,0,0,0-19.84-11.74C548.53,235.54,535.33,241.46,523,253.48Z"/><path class="cls-3" d="M129.06,457.71c10.63-48.77,30.39-93.53,58.6-134.69,7.57-11,16.61-20.61,27-32.4,5.65,25.27-2.64,47.85-1.42,70.5-7.77.81-15.54,1.81-23.33,2.38-22.47,1.63-34.47,24.56-26.22,46.15a117.87,117.87,0,0,0,11,22.08c5.32,8.19,3.47,13.23-4.46,17.9A61.72,61.72,0,0,1,129.06,457.71Z"/><path class="cls-3" d="M424.43,485.79c-17-7.78-33.9-15.73-51-23.26-7.46-3.28-10.52-9.7-13.6-16.36,21-7.87,42-12.68,63.67-1.77,7,3.5,10.54,7.86,6.62,15C425.5,467.76,425.89,476.9,424.43,485.79Z"/><path class="cls-3" d="M417.05,182.91c8.37-1.14,14.8,3.64,21.83,6.88,17,7.85,34.12,15.3,51.21,22.9-18.08,8.79-36.63,7.92-54.94,1.49C420.25,209,415.45,199.69,417.05,182.91Z"/><path class="cls-4" d="M250.66,435.42c11.72,3.68,13,17.92,23.27,23.07-3.28,3.69-7.76,2.75-11.69,2.42-7.75-.64-17.13-1-20.64-8.51C238.23,445.15,246.93,440.84,250.66,435.42Z"/><path class="cls-3" d="M391.59,858.93c-12.54-2.78-25.14-5.33-36.71-11.25C374.59,838.86,383.13,841.47,391.59,858.93Z"/><path class="cls-4" d="M537.16,346.59c9.13-6.15,19.92-3.65,29.84-5.69C558.26,349.13,548.76,353.34,537.16,346.59Z"/><path class="cls-5" d="M422.63,433.41c1.6-.73,2.4-.3,2.22,1.54Z"/></g><g id="Texto"><text id="Mundo_Sapien" data-name="Mundo  Sapien" class="cls-6" transform="translate(544.59 535.91)">Mundo <tspan x="0" y="168.68">Sapien</tspan></text></g></g></svg>