<svg xmlns="http://www.w3.org/2000/svg" viewBox="0 0 717.9 717.34"><defs><style>.cls-1{fill:#0c3;}.cls-2{fill:#036;}.cls-3{fill:#03475f;}</style></defs><title>mundo</title><g id="pieza-11"><g id="pieza-11-2" data-name="pieza-11"><path class="cls-1" d="M682.35,847.43c28.71-11,52.28-30.2,76.51-48.32,6.65,21.22,6.42,20.88-14.62,35-38.84,26-80.23,46-126.47,54.64-5,.93-13,7.48-15.39-.72-2.21-7.47.46-16,9.14-21.06,12.17-7.06,24.59-7,37-2.27,19.57,7.47,19.42,7.77,29.38-10.54C679.19,851.79,680.86,849.66,682.35,847.43Z" transform="translate(-181.6 -181.87)"/><path class="cls-2" d="M682.35,847.43c12.52-34.14,13.85-70.23,17.78-105.81.84-7.55,2.84-9,9.62-8.62,19.32,1,38.74.92,56.81,9.38,6.08,2.84,11.34,4.85,5.59,13.72a83.09,83.09,0,0,0-13.29,43C734.63,817.23,711.06,836.4,682.35,847.43Z" transform="translate(-181.6 -181.87)"/></g></g><g id="pieza-10"><g id="pieza-10-2" data-name="pieza-10"><path class="cls-1" d="M468.09,872.43c3.05,3.94,2.72,8.59,2.74,13.16,0,4.74-1.76,6.74-6.8,5.11-17.35-5.61-35.88-7.22-53.95-15.64,6.57-6.47,13.2-11.19,21.3-13.88C443,867.11,455.55,869.65,468.09,872.43Z" transform="translate(-181.6 -181.87)"/><path class="cls-2" d="M468.09,872.43c-12.54-2.78-25.14-5.32-36.71-11.25C451.09,852.36,459.63,855,468.09,872.43Z" transform="translate(-181.6 -181.87)"/></g></g><g id="pieza-9"><g id="pieza-9-2" data-name="pieza-9"><path class="cls-1" d="M399.18,847.92c7.64.21,13.38,4.54,19.13,8.83C405.51,865.22,405.51,865.22,399.18,847.92Z" transform="translate(-181.6 -181.87)"/><path class="cls-1" d="M688,761.06c-11.71,6.48-21.42,15.5-31.41,24.27-18,15.83-36.44,31.23-54.89,46.58-21,17.47-34.73,17.2-49.79-.54,7.66-3.18,15.76-5.6,22.9-9.68,25.33-14.46,27.71-34.24,13.45-52.57-6.23-8-4.17-11.93,3.08-16,28.22-15.92,59-20.91,90.9-21.5,5.86-.1,8.24,2.61,7.4,8.72C688.71,747.18,688.53,754.14,688,761.06Z" transform="translate(-181.6 -181.87)"/><path class="cls-1" d="M479.54,875c38,6.21,76,3.14,114,0-3.08,20.3-3,21.37-31.18,23.29-24.4,1.67-49,1.48-73.37-2.72C474.49,893,481.41,882.35,479.54,875Z" transform="translate(-181.6 -181.87)"/><path class="cls-2" d="M479.54,875c-12.34-29.88-29.54-35-61.23-18.22-5.75-4.29-11.49-8.62-19.13-8.83-9.51-22.24-13.1-45.92-17-69.53-.82-5,.76-7.39,5.94-8.79,29.56-8,58.95-16.52,88.53-24.42,6.18-1.65,12.81-1,19.2.89,19.24,5.86,21.42,11.16,10,27.11-9.28,13-13.1,26.68-6,41.59s21.25,16.33,35.42,17c5.52.23,11.08-.22,16.62-.35,15.06,17.74,28.79,18,49.79.54,18.45-15.35,36.86-30.75,54.89-46.58,10-8.77,19.7-17.79,31.41-24.27-.25,29.35-3.68,58-16.24,85.13-4.31,9.32-9.13,13.7-20.08,10.26-6.35-2-13.36-2.79-20.17-3.74-19.11-2.66-31.7,3.91-38,22.23C555.54,878.11,517.54,881.18,479.54,875Z" transform="translate(-181.6 -181.87)"/></g></g><g id="pieza-8"><g id="pieza-8-2" data-name="pieza-8"><path class="cls-1" d="M246.41,713.46c32.06,50.43,74.11,90.53,125.38,121,4.66,2.78,8.8,7,14.89,6.73.18.43.53.85.53,1.27-.07,7.8,10,17,4.38,21.41-7,5.47-15.94-4.35-23-7.95-39.08-20-71.37-49-100.74-81.34-3.78-4.17-7-8-3.37-14.61s-2.21-11.15-6.13-15.49C250.35,735.65,244.22,726.2,246.41,713.46Z" transform="translate(-181.6 -181.87)"/><path class="cls-2" d="M246.41,713.46c-3.43-20.62,22.86-31.7,42.7-27.88,21,4,31.16,19.66,25.7,41-1.6,6.21-4.37,12.13-6,18.34-4.51,17.22,4.14,30.35,21.6,33.28,10.16,1.71,20.36.73,30.43-.36,8.09-.88,11.4,2,13.06,9.81,3.81,18,8.46,35.75,12.78,53.61-6.09.26-10.23-4-14.89-6.73C320.52,804,278.47,763.89,246.41,713.46Z" transform="translate(-181.6 -181.87)"/></g></g><g id="pieza-7"><g id="pieza-7-2" data-name="pieza-7"><path class="cls-1" d="M678.32,551.69c13.37,4,19.22,15.07,24.21,26.57,3.3,7.6,8.07,13.13,15.73,16.46,14.36,6.26,28.63,12.75,42.89,19.25,23.08,10.51,27.47,21,17,43.82-10.74,23.43-22.35,46.46-33.58,69.66-13.7-1.82-27.37-4.08-41.13-5.28-6.29-.55-5.81-4.23-6.41-8.37-2.51-17.38-5.19-34.73-7.89-52.08-1.16-7.42-4.61-14-8.22-20.45-5.89-10.51-14.56-13.87-25.75-8.8-8.85,4-17.31,8.93-26.3,12.56-17.84,7.21-29.75,2.13-36.72-15.39-6.17-15.49-7.65-31.42-3-47.65,7-24.27,29.69-30.89,48.41-14,4.79,4.33,8.77,9.56,13.64,13.8,7.43,6.46,13.73,4.73,17.47-4.17C672.26,569.15,675.14,560.35,678.32,551.69Z" transform="translate(-181.6 -181.87)"/><path class="cls-1" d="M768.41,784c8.89-.81,13.65-8.19,18.52-13.67,49.24-55.42,82.59-118.44,91.67-193.16a360,360,0,0,0-8.47-133.33c12.65-2.38,18.74,1.58,21.58,15.52,11.75,57.68,10.44,114.49-5.49,171.25-9,32.14-20.38,63.06-38.24,91.39A37.11,37.11,0,0,1,838.15,733c-8.16,5.93-15.94,11.5-17.46,24.45-1.25,10.68-13.08,18.39-21.09,26.67-6.44,6.65-13,13.15-19.66,19.61-2.27,2.21-4.63,5.18-8.26,4.07-4.22-1.3-5-5.25-4.92-9C766.93,793.86,765.53,788.65,768.41,784Z" transform="translate(-181.6 -181.87)"/><path class="cls-2" d="M678.67,551.69c7.94-34,10.42-68.5,11-103.25.07-4.78-.19-9.29,7.14-8.81,26.77,1.74,53.36,4,78.12,16.88-7.44,9.17-15.22,17.6-21.66,27-13.94,20.23-7.48,41.79,15.11,51,26.18,10.64,51.73,8.18,76.12-5.63,13.81-7.83,19-22.33,13.64-38.29-2.49-7.37-6.36-14.32-10.05-21.22-8.34-15.64-5-22.54,12.72-25.29,3.16-.49,6.46-.14,9.69-.19a360,360,0,0,1,8.47,133.33c-9.08,74.72-42.43,137.74-91.67,193.16-4.87,5.48-9.62,12.86-18.51,13.67,2-9.62,6.73-18.14,11-26.81,5.67-11.57,1.68-18.48-9.8-22.15-8.29-2.64-16.65-5-25-7.56,11.22-23.2,22.83-46.23,33.57-69.66,10.45-22.8,6.05-33.31-17-43.82-14.26-6.5-28.52-13-42.89-19.25-7.65-3.33-12.43-8.86-15.73-16.46C697.88,566.76,692,555.71,678.67,551.69Z" transform="translate(-181.6 -181.87)"/></g></g><g id="pieza-6"><g id="pieza-6-2" data-name="pieza-6"><path class="cls-1" d="M671,549.26c-.12,2.27.17,4.66-.42,6.81C665,576.46,662.87,577,648,563.64c-11.45-10.29-24-16.48-40.44-11.65-16.86,5-22.35,17.55-25.82,32.7-4.2,18.42-1.6,35.87,6.29,52.66,8.56,18.21,22,24.26,40.87,17.74,9.54-3.29,18.39-8.49,27.7-12.5,12.34-5.3,19.88-2,22.77,11,4.29,19.36,7.44,39,11.38,58.41,1.76,8.68-2.74,9.67-9.83,10.4-28.9,2.94-58.16,4.59-85,17.43a100.1,100.1,0,0,0-16.37,10.24c-6.62,4.95-7.07,11.21-2.92,18.33,17.2,29.47,11.74,42.43-21.75,51.92-2.62.75-5.36,1.07-8,1.58-.9-14.49,1.64-28.36,5.81-42.31,6.2-20.76,10.43-42.1,16.59-62.88,2.79-9.37.45-14.57-8.42-16.58-17.89-4.07-26.44-16.88-32.62-32.63-4.73-12-10.16-23.8-15.5-35.59-8.45-18.67-5.83-29.79,10.64-42.13,5.25-3.93,10.41-7.82,13.19-13.94,2.21-4.87,2.79-10.22-4.69-9-15.49,2.6-26.23-6.5-38.07-13.51S469.54,539.92,457.55,533c-18.6-10.79-39.94-14.46-59.33-23.15,1.21-10.95,2.45-21.9,3.6-32.85.6-5.74,3.58-9.24,9.19-10.67,8.46-2.14,16.88-4.41,25.33-6.62,3.08,6.66,6.14,13.08,13.6,16.36,17.09,7.53,34,15.48,51,23.26,1.77,24.3,11.37,33.7,38.15,37.36,9.63,5.34,18.19,6.55,27.36-2.35,4.7-4.57,12.5-4.16,19.73-2.59C614.39,537.88,642.74,543.46,671,549.26Z" transform="translate(-181.6 -181.87)"/><path class="cls-2" d="M398.22,509.81C417.61,518.5,439,522.17,457.55,533c12,7,24.29,13.38,36.21,20.44s22.58,16.11,38.07,13.51c7.48-1.25,6.9,4.1,4.69,9-2.78,6.12-7.94,10-13.19,13.94-16.47,12.34-19.09,23.46-10.64,42.13,5.34,11.79,10.77,23.55,15.5,35.59,6.18,15.75,14.73,28.56,32.62,32.63,8.87,2,11.21,7.21,8.42,16.58-6.16,20.78-10.39,42.12-16.59,62.88-4.17,14-6.71,27.82-5.81,42.31-14.26.67-29.93,3.92-38.83-11.25-9-15.37,1.5-27,10-38.74,9.11-12.54,7.78-18.74-4.88-27.48-14-9.65-29.28-10.28-45.15-6.72-26.56,6-52.44,14.36-78.28,22.8-7.3,2.38-10.16,1.44-11.24-6.84-3.69-28.34,1.17-56.44,2.25-84.6.29-7.56,7.82-15.13,12.8-22.14,3.34-4.7,7.47-1,11.06.82,37.14,18.69,65.22,2.05,66.77-39.63.17-4.63.13-9.28-.09-13.9-1.62-33.47-28.87-49-57.22-31.64-9.69,5.94-12,2.48-15.62-5.38C391.06,541.31,394.68,525.62,398.22,509.81Z" transform="translate(-181.6 -181.87)"/><path class="cls-2" d="M671,549.26c-28.3-5.8-56.65-11.38-84.87-17.55-7.23-1.57-15-2-19.73,2.59-9.17,8.9-17.73,7.69-27.36,2.35,12.37-3,25.15-4.62,36.36-11.52,23.85-14.68,26.72-37.48,5.79-55.72-8.44-7.36-9.09-9.73,1.64-15.2,21.09-10.74,44.06-9.2,66.23-12.88,2.26-.37,4.63,0,6.93-.23,26.63-2.27,27-2.26,25.66,24.87C680.31,494,681.09,522.33,671,549.26Z" transform="translate(-181.6 -181.87)"/><path class="cls-2" d="M500.93,499.29c-17-7.78-33.9-15.73-51-23.26-7.46-3.28-10.52-9.7-13.6-16.36,21-7.87,42-12.68,63.67-1.77,7,3.5,10.54,7.87,6.62,15C502,481.26,502.39,490.4,500.93,499.29Z" transform="translate(-181.6 -181.87)"/></g></g><g id="pieza-5"><g id="pieza-5-2" data-name="pieza-5"><path class="cls-1" d="M204.81,480.81c-12,65.57-1.39,128.59,21.34,190.24,3.36,9.12,6.69,18.29,14.72,24.63-5.16,10.65-4.3,22.21-4.22,37.79-13.45-18.78-19.21-36.94-26.91-54-26.31-58.26-31.5-119.72-26.36-182.58C185,477.28,186.6,476.24,204.81,480.81Z" transform="translate(-181.6 -181.87)"/><path class="cls-1" d="M322.29,439c-5.6-12.86-17-21.53-24.07-33.4-3.82-6.4-7.81-12.42-7.78-20.17C325.5,386.79,339.87,411,322.29,439Z" transform="translate(-181.6 -181.87)"/><path class="cls-1" d="M387,505.46c-13.14-3.09-24.46-8.63-29.86-22.16a19.13,19.13,0,0,1,3.59-1.91C393.54,472.1,393.55,472.11,387,505.46Z" transform="translate(-181.6 -181.87)"/><path class="cls-2" d="M322.29,439c-3,4.07-6,8.08-8.88,12.24-10,14.54-3.68,28,13.74,31.95,10.26,2.34,20-.13,30,.1,5.4,13.53,16.72,19.07,29.86,22.16-2.78,21.77-3.86,43.36,7.26,63.54,7.74,14,9.05,14.24,20.26,3.64,15.64-14.8,38.94-9.54,45.7,10.85,6,18.09,3.42,35.73-6.44,51.9-6.76,11.1-19.44,14.68-32.94,10.2-4.8-1.59-9.3-4.08-14.1-5.72-14.13-4.83-21.2-1.62-28,11.67-10.23,20-12.3,41.49-11.82,63.33a420.33,420.33,0,0,0,3.14,42.85c.83,6.58-.86,9.41-7,10.37-9.07,1.41-17.94,4.21-27.37,2.06-18.69-4.28-23.16-11.95-16.37-29.36,6.49-16.64,9.15-33.36-1.78-49-13.62-19.47-51.41-22.11-68.43-5.31-2.92,2.88-5.49,6.11-8.21,9.18-8-6.34-11.36-15.51-14.72-24.63-22.73-61.65-33.38-124.67-21.34-190.24,21.88,3.68,40.24-3.93,56.38-18,5.48-4.79,4.34-10.54.86-16.27-4-6.66-8.75-13.14-11.47-20.34-4.18-11.07-5.94-23.48,2.89-32.71,9.86-10.32,23.13-12.26,37-8.05,0,7.75,4,13.77,7.78,20.17C305.29,417.48,316.69,426.15,322.29,439Z" transform="translate(-181.6 -181.87)"/></g></g><g id="pieza-4"><g id="pieza-4-2" data-name="pieza-4"><path class="cls-1" d="M869.13,432.15c-10.4-30.61-22.72-60.55-41-87.19a394.57,394.57,0,0,0-45.85-54.8C763.14,271,741.44,256,719.41,240.93c-9.2-6.3-17.29-8-26.18-.51,1.61-7.65,3.23-15.31,5.18-24.56,94.06,46.49,157.83,118.2,191,217.7C881.32,436.8,875.42,432.41,869.13,432.15Z" transform="translate(-181.6 -181.87)"/><path class="cls-1" d="M607.21,273.69c8.9,4.73,17.61,9.86,26.73,14.13,28.9,13.51,24.87,22.29,23.54,47.18-.19,3.58-1.76,7.08-2.7,10.62L643.5,354.4c-9.92,2-20.71-.46-29.84,5.69C592.78,341.28,589.64,299.17,607.21,273.69Z" transform="translate(-181.6 -181.87)"/><path class="cls-2" d="M607.21,273.69c9.51-13,23.16-14.65,40.09-5.19,7.28,4.08,12.54,14.42,22.51,10.51,11.19-4.39,14.44-16,18.83-26,1.78-4.07,3.07-8.36,4.59-12.55,8.89-7.47,17-5.79,26.18.51,22,15.07,43.73,30,62.85,49.23A394.57,394.57,0,0,1,828.11,345c18.3,26.64,30.62,56.58,41,87.19-5.35,1.35-10.93,2.15-16,4.16-16.93,6.67-21,17.7-12.93,34,1.43,2.89,3.07,5.67,4.61,8.5,15,27.49,9,42-21,50.21-16,4.4-32.08,4.28-47.79-1.62-19.61-7.37-25.18-25.78-12.4-42.37,4.74-6.16,11.05-11.11,16.6-16.65,10.38-10.38,8.91-17.15-5.24-21.67-24.65-7.88-49.57-15.11-75.57-16.39-6.77-.33-8.49-2.84-9.62-8.4-3.1-15.29-5.44-30.86-10.16-45.65-4.12-12.89-6.4-28.72-24.79-30.67.94-3.54,2.51-7,2.7-10.62,1.33-24.89,5.36-33.67-23.54-47.18C624.82,283.55,616.11,278.42,607.21,273.69Z" transform="translate(-181.6 -181.87)"/><path class="cls-3" d="M613.66,360.09c9.13-6.15,19.92-3.65,29.84-5.69C634.76,362.63,625.26,366.84,613.66,360.09Z" transform="translate(-181.6 -181.87)"/></g></g><g id="pieza-3"><g id="pieza-3-2" data-name="pieza-3"><path class="cls-1" d="M493.55,196.41c-.82-8,3.06-11.72,10.88-12.64,20.68-2.44,41.44-2.21,62.13-1.09,10,.54,15.55,23.8,9,35.47-2,3.58-4.41,7.07-8.92,8-17.09-7.61-34.24-15.06-51.21-22.9C508.35,200.05,501.92,195.27,493.55,196.41Z" transform="translate(-181.6 -181.87)"/><path class="cls-2" d="M493.55,196.41c8.37-1.14,14.8,3.64,21.83,6.89,17,7.84,34.12,15.29,51.21,22.9-18.08,8.78-36.63,7.91-54.94,1.49C496.75,222.46,492,213.19,493.55,196.41Z" transform="translate(-181.6 -181.87)"/></g></g><g id="pieza-2"><g id="pieza-2-2" data-name="pieza-2"><path class="cls-2" d="M496.62,446.21c25.67.77,36.61-19.92,50.87-35.39,12.8-13.89,24.88-28.44,37-42.95A18,18,0,0,1,598.83,361c24.22,16.64,34.15,16.58,54.18-2.62,5.75-5.52,7.31-2.35,9.86,1.67,12.6,19.82,14.71,42.43,17.06,65,.57,5.54-2.85,5.75-6.95,5.51-27-1.57-53.06,5-79.24,10.16a48.39,48.39,0,0,0-12.91,4.59c-21.4,11.18-19,19.2-5.34,31.61,17.41,15.78,13.66,31.92-7.87,42.25-13,6.23-26.33,8.81-40.26,4.12-13.76-4.63-18.7-13.43-16.07-27.82.9-5,2.07-9.94,3.43-14.82,5.82-20.83,5.86-20.82-13.37-32.11.18-1.84-.62-2.27-2.22-1.54A12.81,12.81,0,0,1,496.62,446.21Z" transform="translate(-181.6 -181.87)"/><path class="cls-1" d="M496.62,446.21C466,437.9,437.41,448.52,407,457.1c2.46-18.67,4.51-36,7.1-53.24,2.37-15.72-.34-30.19-7.78-44.25-5.72-10.8-13.43-13-24-8.24-4.63,2.1-9.14,4.5-13.84,6.43-22.3,9.16-36.73,1.38-42.23-22.09a56.83,56.83,0,0,1,3.56-36.61c10.09-23.18,32.31-28.34,52.06-12.42,12.17,9.82,13.9,9.51,21.09-4.52,10.89-21.25,16.36-44.18,19.17-67.63,1.25-10.41,5.81-15.35,15.63-17.38,12.66-2.63,25.12-6.23,37.76-9,8-1.75,12,.56,7.28,9.26-7.16-.43-13.54,2.62-20.22,4.4-3.93,1.05-9.43.63-9.21,6.21.16,4.1,5.18,4.66,8.48,6.11,3.8,1.68,7.86,2.86,11.44,4.91,15,8.6,19.88,21.67,10.74,36.09-8.83,13.94-.37,20.59,8.47,27.22,6.16,4.63,13.81,7,21.28,9.64,12,4.2,17.92,1.21,21.19-11.31,6.76-25.93,25.13-33.05,49.22-19.91,4.88,2.67,9.52,5.78,15.29,6.2-18.57,31.19-14.57,62.54-.69,94a18,18,0,0,0-14.35,6.92c-12.11,14.51-24.19,29.06-37,42.95C533.23,426.29,522.29,447,496.62,446.21Z" transform="translate(-181.6 -181.87)"/><path class="cls-1" d="M680.52,244.19C648,252.87,616.8,250.08,587.34,233c-2.41-1.41-5-2.46-5.35-5.72,5.23-13.57,7.59-27.31.42-42.78,36.4,2.79,69,12.06,100.87,24.92,5.12,2.06,5.72,5.74,4.81,10C686.28,227.86,686.14,236.88,680.52,244.19Z" transform="translate(-181.6 -181.87)"/><path class="cls-2" d="M599.52,267c-5.77-.42-10.41-3.53-15.29-6.2-24.09-13.14-42.46-6-49.22,19.91-3.27,12.52-9.19,15.51-21.19,11.31-7.47-2.62-15.12-5-21.28-9.64-8.84-6.63-17.3-13.28-8.47-27.22,9.14-14.42,4.25-27.49-10.74-36.09-3.58-2.05-7.64-3.23-11.44-4.91-3.3-1.45-8.32-2-8.48-6.11-.22-5.58,5.28-5.16,9.21-6.21,6.68-1.78,13.06-4.83,20.22-4.4,4.24,38.75,49.87,58.25,87.48,37.32,4-2.24,7.78-5,11.67-7.5.35,3.26,2.94,4.31,5.35,5.72,29.46,17.12,60.62,19.91,93.18,11.23.45,9.37-6.82,15.57-9.73,23.58-2,5.49-5.11,3-8.32.69a103.49,103.49,0,0,0-19.84-11.74C625,249,611.83,255,599.52,267Z" transform="translate(-181.6 -181.87)"/><path class="cls-2" d="M499.13,446.91c1.6-.73,2.4-.3,2.22,1.54Z" transform="translate(-181.6 -181.87)"/></g></g><g id="pieza-1"><g id="pieza-1-2" data-name="pieza-1"><path class="cls-1" d="M205.56,471.21c-10.62.16-19.09-.63-14.92-15.69q48.59-175.48,215.83-247c1.62-.69,3.53-.72,7-1.38-2.29,26.81-9.25,51.24-20.52,75.66-4.08-2.79-7.23-5.17-10.59-7.2-23.22-14-49.62-6.23-60.05,18.7-7,16.7-11.1,34.21-2.36,51.88,12,24.21,30.1,30.54,54.91,19.35,22.92-10.34,26.53-8.13,29.61,17.13,3,24.43-2.27,47.87-7.92,71.29-1,4.15-2.74,8.24-7.32,9.33-12.91,3-25,9.84-38.83,8.7-10.28-5.15-11.55-19.39-23.27-23.07,6.07-8.81,11.12-18.12,12.43-28.91,2-16.23-8.6-31.42-27.41-38.83-7.23-2.84-15-4.41-22.48-6.55-1.22-22.66,7.07-45.23,1.42-70.51-10.35,11.79-19.39,21.36-27,32.4C236,377.68,216.19,422.44,205.56,471.21Z" transform="translate(-181.6 -181.87)"/><path class="cls-2" d="M205.56,471.21c10.63-48.77,30.39-93.53,58.6-134.69,7.57-11,16.61-20.61,27-32.4,5.65,25.28-2.64,47.85-1.42,70.51-7.77.8-15.54,1.8-23.33,2.37-22.47,1.63-34.47,24.56-26.22,46.15a117.87,117.87,0,0,0,11,22.08c5.32,8.19,3.47,13.23-4.46,17.91A61.71,61.71,0,0,1,205.56,471.21Z" transform="translate(-181.6 -181.87)"/><path class="cls-3" d="M327.16,448.92c11.72,3.68,13,17.92,23.27,23.07-3.28,3.69-7.76,2.75-11.69,2.42-7.75-.64-17.13-1-20.64-8.5C314.73,458.65,323.43,454.34,327.16,448.92Z" transform="translate(-181.6 -181.87)"/></g></g></svg>