<?xml version="1.0" standalone="no"?>
<!DOCTYPE svg PUBLIC "-//W3C//DTD SVG 20010904//EN"
 "http://www.w3.org/TR/2001/REC-SVG-20010904/DTD/svg10.dtd">
<svg version="1.0" xmlns="http://www.w3.org/2000/svg"
 width="1081.000000pt" height="1081.000000pt" viewBox="0 0 1081.000000 1081.000000"
 preserveAspectRatio="xMidYMid meet">
<metadata>
Created by potrace 1.14, written by Peter Selinger 2001-2017
</metadata>
<g transform="translate(0.000000,1081.000000) scale(0.100000,-0.100000)"
fill="#000000" stroke="none">
<path d="M5155 10760 c-16 -3 -38 -10 -49 -16 -30 -18 -43 -97 -39 -234 9
-339 0 -1678 -12 -1762 -9 -66 4 -109 38 -126 51 -26 76 -19 152 39 103 79
285 169 375 186 14 2 45 9 70 14 60 13 163 9 225 -9 60 -17 142 -69 187 -117
61 -66 138 -211 153 -288 2 -9 6 -21 9 -25 5 -9 12 -39 26 -122 15 -83 1 -313
-25 -441 -91 -437 -386 -596 -800 -432 -49 20 -105 45 -125 56 -200 113 -255
118 -280 28 -6 -23 -11 -340 -12 -822 -3 -762 -2 -785 17 -816 35 -59 68 -67
270 -66 732 6 1524 0 1575 -11 107 -23 146 -81 136 -200 -7 -93 -15 -113 -68
-178 -53 -65 -132 -198 -153 -258 -31 -87 3 -147 99 -175 69 -20 91 -24 211
-40 28 -4 61 -9 75 -11 14 -2 50 -6 80 -9 30 -3 66 -8 80 -10 14 -3 48 -7 75
-11 46 -5 96 -13 120 -18 6 -1 56 -17 112 -36 85 -27 109 -40 138 -71 20 -22
44 -39 53 -39 54 0 105 85 104 172 -1 108 -52 231 -184 443 -89 143 -101 172
-101 235 2 95 61 167 167 203 19 6 207 11 466 12 489 4 1401 4 1530 2 71 -2
89 1 112 18 58 44 73 133 43 265 -10 45 -14 74 -20 150 -3 41 -13 122 -21 180
-8 58 -17 121 -20 140 -3 19 -7 46 -10 60 -2 14 -6 36 -9 50 -20 106 -40 200
-62 285 -14 55 -26 105 -27 110 -2 6 -8 30 -15 55 -7 25 -13 45 -12 45 4 0
-112 334 -143 412 -480 1227 -1462 2244 -2663 2759 -178 76 -561 211 -650 228
-10 2 -47 12 -83 21 -76 20 -66 18 -195 45 -55 11 -116 23 -135 26 -19 3 -42
7 -50 9 -8 2 -37 7 -65 11 -27 3 -58 8 -69 10 -10 2 -44 6 -75 9 -31 4 -67 8
-81 10 -84 11 -118 17 -240 35 -176 27 -170 26 -205 20z"/>
<path d="M4658 10735 c-2 -2 -41 -6 -88 -9 -130 -11 -235 -23 -355 -42 -72
-12 -95 -16 -170 -30 -44 -9 -93 -18 -110 -21 -116 -19 -473 -123 -634 -184
-58 -22 -110 -41 -116 -43 -5 -1 -27 -10 -49 -19 -21 -9 -40 -17 -42 -17 -10
0 -222 -98 -337 -156 -378 -189 -742 -437 -1086 -739 -67 -59 -328 -322 -401
-403 -155 -173 -414 -516 -495 -654 -5 -9 -29 -48 -51 -85 -23 -37 -52 -86
-64 -108 -202 -359 -315 -620 -448 -1035 -20 -60 -75 -268 -86 -322 -3 -13
-12 -54 -20 -93 -8 -38 -18 -86 -21 -105 -3 -19 -8 -42 -10 -50 -8 -26 -43
-282 -50 -360 -3 -41 -8 -92 -11 -113 -7 -62 -7 -190 0 -226 16 -82 76 -124
161 -112 59 9 1717 4 1807 -4 75 -8 77 -7 102 20 45 48 32 100 -51 199 -37 44
-151 283 -169 354 -47 187 3 336 173 516 104 109 431 187 648 154 194 -29 340
-70 417 -116 26 -15 68 -47 93 -71 46 -43 114 -136 119 -162 2 -8 11 -41 21
-74 31 -105 25 -223 -20 -380 -42 -147 -53 -172 -80 -179 -35 -9 -69 -60 -104
-155 -17 -47 -31 -88 -31 -91 0 -4 305 -7 678 -7 372 -1 749 -3 837 -6 172 -6
216 2 260 43 27 25 47 91 47 152 0 24 -3 189 -6 368 -10 592 -8 1182 4 1235
44 195 170 208 423 42 220 -145 362 -176 515 -114 205 84 296 267 287 581 -8
275 -44 404 -144 509 -126 134 -342 120 -608 -39 -193 -116 -258 -144 -334
-144 -36 0 -48 6 -79 39 -31 32 -40 52 -50 107 -12 64 -13 103 -9 359 1 100
-5 169 -20 209 -5 11 -7 28 -6 36 27 176 35 538 21 860 -9 186 -9 329 0 410
19 175 0 233 -83 261 -29 9 -168 20 -175 14z"/>
<path d="M2490 6913 c-84 -13 -278 -96 -372 -161 -56 -38 -105 -102 -120 -157
-31 -113 10 -240 157 -486 121 -204 141 -276 95 -356 -29 -51 -61 -73 -118
-81 -37 -6 -1788 -6 -1987 -1 -101 3 -139 -35 -142 -141 0 -36 5 -95 12 -132
7 -36 13 -106 14 -155 3 -134 9 -175 43 -348 11 -55 22 -113 25 -129 20 -117
163 -634 183 -661 4 -5 10 -23 14 -39 9 -35 69 -191 100 -261 13 -27 27 -61
31 -75 24 -81 242 -497 358 -685 253 -408 589 -798 963 -1116 188 -159 279
-227 485 -362 198 -129 323 -200 545 -307 104 -50 197 -96 206 -101 10 -5 22
-9 28 -9 5 0 33 -11 62 -24 137 -63 582 -209 732 -241 12 -2 82 -17 156 -34
74 -16 149 -32 165 -35 17 -3 41 -8 55 -11 14 -3 41 -7 60 -9 19 -3 44 -7 55
-9 19 -4 74 -12 159 -23 22 -2 51 -6 65 -9 101 -16 280 -25 308 -14 38 14 56
54 55 122 -3 130 0 709 3 857 9 431 8 440 -58 494 -33 27 -42 29 -114 28 -43
0 -82 -1 -88 -2 -30 -7 -57 4 -89 34 -20 18 -36 37 -36 42 0 5 51 9 113 9 137
1 263 36 482 135 112 51 169 58 227 29 89 -46 119 -138 93 -290 -11 -63 -14
-84 -29 -179 -8 -52 -18 -115 -21 -140 -3 -25 -8 -56 -10 -70 -5 -27 -10 -61
-20 -130 -4 -25 -8 -54 -10 -65 -2 -11 -6 -42 -9 -70 -4 -27 -9 -57 -11 -65
-3 -8 -7 -35 -10 -60 -3 -25 -8 -58 -11 -75 -3 -16 -7 -43 -10 -60 -4 -32 -23
-164 -29 -205 -2 -14 -9 -54 -14 -90 -6 -36 -13 -83 -16 -105 -3 -22 -8 -51
-10 -65 -2 -14 -7 -45 -10 -70 -3 -25 -10 -70 -15 -100 -6 -30 -12 -75 -15
-100 -3 -25 -17 -82 -31 -127 -36 -116 -26 -172 38 -211 37 -23 91 -38 158
-47 25 -3 63 -7 85 -10 218 -27 692 -27 930 0 17 1 57 6 90 9 33 4 74 8 90 11
17 3 48 7 70 10 22 4 47 8 55 10 8 2 35 7 60 10 25 4 65 11 90 17 25 5 54 12
65 14 42 8 61 13 105 23 25 7 54 14 65 16 181 42 489 146 715 240 407 170 908
467 1206 714 17 14 51 42 75 61 179 143 483 442 650 640 489 578 834 1238
1007 1927 73 288 77 361 25 415 -29 30 -60 37 -188 42 -67 3 -153 15 -355 51
-46 9 -275 47 -295 50 -11 2 -63 11 -115 20 -52 9 -106 18 -120 20 -14 2 -63
11 -110 19 -136 24 -148 26 -182 31 -18 3 -58 10 -88 15 -30 5 -71 12 -90 15
-19 3 -57 10 -85 15 -27 5 -63 11 -80 14 -53 7 -229 37 -255 42 -60 12 -100
14 -100 6 0 -5 20 -58 44 -118 171 -424 190 -596 88 -799 -44 -89 -72 -116
-157 -156 -78 -36 -160 -67 -200 -75 -11 -2 -33 -6 -48 -10 -90 -19 -268 -19
-370 1 -408 78 -659 309 -659 604 0 86 21 176 62 267 38 85 81 145 163 233 62
65 106 135 107 168 0 6 -15 11 -33 11 -40 0 -116 22 -188 55 -87 39 -114 46
-344 83 -16 2 -41 7 -55 9 -14 3 -38 7 -55 9 -16 3 -59 9 -95 15 -78 12 -148
23 -175 26 -45 6 -182 27 -205 31 -14 3 -45 7 -70 10 -25 3 -67 9 -95 14 -27
5 -86 14 -130 20 -95 14 -123 18 -191 29 -128 20 -183 -22 -199 -153 -3 -32
-8 -68 -10 -80 -8 -50 -17 -122 -17 -136 0 -8 -4 -35 -8 -60 -5 -25 -11 -69
-15 -99 -4 -30 -9 -63 -11 -75 -2 -12 -6 -34 -9 -51 -5 -29 -10 -54 -20 -105
-19 -90 -26 -128 -30 -150 -12 -77 -15 -102 -24 -170 -6 -41 -12 -95 -15 -120
-10 -87 -17 -145 -22 -170 -2 -14 -7 -43 -9 -65 -22 -167 -121 -436 -166 -450
-25 -8 -90 2 -138 22 -43 18 -92 56 -186 141 -74 68 -184 146 -249 175 -134
62 -281 53 -391 -24 -152 -106 -247 -348 -269 -686 -6 -88 -23 -147 -48 -170
-82 -74 -346 72 -451 248 -35 60 -80 185 -91 254 -19 121 -24 293 -11 395 33
269 147 460 326 547 89 43 158 57 274 56 165 -1 273 -39 446 -158 51 -36 103
-65 116 -65 15 0 28 10 39 32 15 28 17 110 21 767 6 936 6 869 -7 900 -6 15
-25 36 -43 47 -30 18 -55 19 -377 21 -190 1 -356 2 -370 3 -14 1 -131 1 -260
1 -296 0 -677 7 -710 13 -53 10 -69 15 -98 30 -58 30 -75 85 -51 171 16 56 70
170 111 235 166 259 183 482 49 618 -48 48 -153 107 -259 143 -111 38 -271 56
-372 42z"/>
</g>
</svg>
